<svg id="Glyph" height="512" viewBox="0 0 64 64" width="512" xmlns="http://www.w3.org/2000/svg"><g fill="rgb(0,0,0)"><path d="m10.96 8.07a3.00235 3.00235 0 0 0 -1.35 2.5v37a.98731.98731 0 0 0 .62.92l20.77 8.64v-41.9l-17.19-7.41a3.01272 3.01272 0 0 0 -2.85.25z"/><path d="m8.33 49.51a2.94351 2.94351 0 0 1 -.72-1.94s-.03321-37.52626.12-38.08995a3.02147 3.02147 0 0 0 -3.73 2.91003v35.75992a2.99482 2.99482 0 0 0 2.27 2.91l12.35 3.09-9.16-3.81a2.9706 2.9706 0 0 1 -1.13-.83z"/><path d="m54.39 47.57v-37a3.02814 3.02814 0 0 0 -4.2-2.74993l-17.19 7.40993c.0006 2.26883-.00043 39.62238 0 41.9l20.77-8.64a.98731.98731 0 0 0 .62-.92z"/><path d="m58.89 10.06a3.01875 3.01875 0 0 0 -2.62-.58c.08.35.12 38.09.12 38.09a3.00809 3.00809 0 0 1 -1.85 2.77l-9.16 3.81 12.35-3.09a2.99482 2.99482 0 0 0 2.27-2.91v-35.76a2.99769 2.99769 0 0 0 -1.11-2.33z"/></g></svg>