<svg id="Layer_1" enable-background="new 0 0 1580 1580" height="512" viewBox="0 0 1580 1580" width="512" xmlns="http://www.w3.org/2000/svg"><g><g><g><g id="XMLID_1_" fill="rgb(0,0,0)"><path d="m1292.36 543.59v543.51h-399.81v-543.51h142.26v14.14c0 31.79 25.87 57.64 57.64 57.64 31.79 0 57.64-25.86 57.64-57.64v-14.14zm-64.67 134.65c0-9.33-7.56-16.88-16.88-16.88h-236.7c-9.33 0-16.88 7.55-16.88 16.88s7.55 16.88 16.88 16.88h236.7c9.31 0 16.88-7.56 16.88-16.88zm0 103.68c0-9.33-7.56-16.88-16.88-16.88h-236.7c-9.33 0-16.88 7.55-16.88 16.88s7.55 16.88 16.88 16.88h236.7c9.31 0 16.88-7.56 16.88-16.88zm0 103.68c0-9.33-7.56-16.88-16.88-16.88h-236.7c-9.33 0-16.88 7.55-16.88 16.88s7.55 16.88 16.88 16.88h236.7c9.31 0 16.88-7.56 16.88-16.88zm0 103.68c0-9.33-7.56-16.88-16.88-16.88h-236.7c-9.33 0-16.88 7.55-16.88 16.88s7.55 16.88 16.88 16.88h236.7c9.31 0 16.88-7.56 16.88-16.88z"/><path d="m687.45 543.59v543.51h-399.81v-543.51h142.26v14.14c0 31.79 25.87 57.64 57.64 57.64 31.79 0 57.65-25.86 57.65-57.64v-14.14zm-64.68 134.65c0-9.33-7.55-16.88-16.88-16.88h-236.7c-9.32 0-16.88 7.55-16.88 16.88s7.56 16.88 16.88 16.88h236.7c9.33 0 16.88-7.56 16.88-16.88zm0 103.68c0-9.33-7.55-16.88-16.88-16.88h-236.7c-9.32 0-16.88 7.55-16.88 16.88s7.56 16.88 16.88 16.88h236.7c9.33 0 16.88-7.56 16.88-16.88zm0 103.68c0-9.33-7.55-16.88-16.88-16.88h-236.7c-9.32 0-16.88 7.55-16.88 16.88s7.56 16.88 16.88 16.88h236.7c9.33 0 16.88-7.56 16.88-16.88zm0 103.68c0-9.33-7.55-16.88-16.88-16.88h-236.7c-9.32 0-16.88 7.55-16.88 16.88s7.56 16.88 16.88 16.88h236.7c9.33 0 16.88-7.56 16.88-16.88z"/><path d="m463.65 495.69c0-13.17 10.72-23.88 23.88-23.88 13.18 0 23.89 10.72 23.89 23.88v62.03c0 13.17-10.72 23.88-23.89 23.88s-23.88-10.72-23.88-23.88z"/><path d="m1068.57 495.69c0-13.17 10.72-23.88 23.88-23.88 13.18 0 23.88 10.72 23.88 23.88v62.03c0 13.17-10.71 23.88-23.88 23.88s-23.88-10.72-23.88-23.88z"/><path d="m1441.96 343.84v892.31h-1303.92v-892.31zm-115.84 760.13v-577.26c0-9.33-7.55-16.88-16.88-16.88h-159.15v-14.14c0-31.79-25.86-57.64-57.64-57.64-31.77 0-57.64 25.86-57.64 57.64v14.14h-159.14c-9.33 0-16.88 7.55-16.88 16.88v577.27c0 9.33 7.55 16.88 16.88 16.88h433.57c9.33-.01 16.88-7.56 16.88-16.89zm-604.91 0v-577.26c0-9.33-7.55-16.88-16.88-16.88h-159.14v-14.14c0-31.79-25.87-57.64-57.65-57.64-31.77 0-57.64 25.86-57.64 57.64v14.14h-159.14c-9.33 0-16.88 7.55-16.88 16.88v577.27c0 9.33 7.55 16.88 16.88 16.88h433.57c9.32-.01 16.88-7.56 16.88-16.89z"/><path d="m1558 227.8v1124.4h-1536v-1124.4zm-82.29 1025.24v-926.08c0-9.33-7.55-16.88-16.88-16.88h-1337.67c-9.33 0-16.88 7.55-16.88 16.88v926.07c0 9.33 7.55 16.88 16.88 16.88h1337.67c9.33.01 16.88-7.55 16.88-16.87z"/></g></g></g></g></svg>